<svg width="160" height="256" viewBox="0 0 160 256" fill="none" xmlns="http://www.w3.org/2000/svg">
<path d="M99.2717 56.6269C100.054 57.7621 99.9139 58.5985 98.8208 58.9677C98.1439 59.2336 97.8791 59.0491 96.9613 57.9671C96.4047 57.2843 95.527 56.427 95.0636 56.1041C94.0376 55.3892 93.8268 54.2099 94.6551 53.6562C95.3019 53.2218 98.1182 55.0366 99.2717 56.6269Z" fill="#FF54C7"/>
<path d="M92.9045 52.8371C93.003 54.0365 91.9791 54.3065 89.4858 53.651C86.6586 52.9103 86.4269 52.7489 86.3456 51.8072C86.2471 50.6078 87.3271 50.3278 89.688 50.8911C92.3928 51.5957 92.8462 51.8623 92.9045 52.8371Z" fill="#FF54C7"/>
<path d="M102.156 63.0625C102.82 65.6388 102.374 67.1963 101.071 66.8786C100.102 66.6461 98.8145 61.2258 99.5465 60.4575C100.496 59.4475 101.516 60.4532 102.156 63.0625Z" fill="#FF54C7"/>
<path d="M118.082 74.3566C117.863 75.2361 116.581 75.5231 115.72 74.9235C115.356 74.6699 114.321 74.3912 113.472 74.3402C111.628 74.2352 111.694 74.2813 111.526 73.1812C111.272 71.9227 112.435 71.4541 114.551 71.9452C116.7 72.4593 118.312 73.5332 118.082 74.3566Z" fill="#FF54C7"/>
<path d="M84.7893 51.0134C85.0101 52.2489 84.3102 52.5479 81.3687 52.4651C78.305 52.3463 77.4314 51.8359 78.3077 50.5782C78.7228 49.9824 79.509 49.8419 81.5549 49.9399C84.6287 50.1149 84.6287 50.1149 84.7893 51.0134Z" fill="#FF54C7"/>
<path d="M118.694 78.0774C118.535 79.2939 116.161 82.0652 115.061 82.2329C113.409 82.5571 113.377 81.4038 114.968 79.12C115.775 77.9616 116.705 76.8392 117.012 76.6105C117.84 76.0568 118.83 76.894 118.694 78.0774Z" fill="#FF54C7"/>
<path d="M109.824 73.5163C109.677 74.1512 105.632 75.5117 104.27 75.3494C103.701 75.2482 103.449 74.9745 103.339 74.3567C103.085 73.0982 103.267 72.9788 106.098 72.4438C108.648 71.9591 110.139 72.359 109.824 73.5163Z" fill="#FF54C7"/>
<path d="M102.91 71.3599C102.942 74.1358 102.198 75.4858 100.925 74.8441C99.9055 74.3308 99.9468 69.0497 100.974 68.6344C102.294 68.0796 102.805 68.8286 102.91 71.3599Z" fill="#FF54C7"/>
<path d="M76.4021 51.0698C76.6028 52.193 76.0583 52.5511 73.4018 52.7651C70.689 52.9892 69.3893 52.5261 69.704 51.3687C69.7922 50.8893 70.7167 50.5502 72.6923 50.255C75.6327 49.8454 76.2013 49.9466 76.4021 51.0698Z" fill="#FF54C7"/>
<path d="M68.0966 51.6763C68.3174 52.9118 67.433 53.4755 64.8095 53.7126C62.0737 53.9698 60.9324 53.4204 61.574 52.1467C61.8537 51.6041 62.6991 51.3081 64.4702 51.1654C67.7545 50.8971 67.9661 50.9462 68.0966 51.6763Z" fill="#FF54C7"/>
<path d="M113.095 83.7162C112.997 84.1394 112.265 84.9077 111.469 85.4845L110.004 86.5287L111.186 87.3027C112.268 88.0076 112.331 88.1991 111.824 88.9273C111.363 89.5892 110.88 89.6465 108.632 89.0631C105.236 88.2213 104.855 87.7099 106.467 86.0308C108.136 84.3417 111.803 82.3244 112.623 82.6993C112.967 82.8407 113.193 83.2929 113.095 83.7162Z" fill="#FF54C7"/>
<path d="M118.133 92.0892C118.74 93.0529 118.764 93.5122 118.273 94.0057C117.597 94.764 117.243 94.5665 114.73 92.176C112.282 89.8317 113.316 87.9953 116.03 89.8863C116.735 90.4267 117.722 91.4094 118.133 92.0892Z" fill="#FF54C7"/>
<path d="M59.9613 53.1333C60.155 54.0549 59.0459 54.6588 56.5649 55.0443C54.8932 55.2562 53.6967 55.2093 53.4911 54.8693C52.7418 53.7572 53.4938 53.1013 56.1132 52.5172C58.5742 52.0194 59.8238 52.2017 59.9613 53.1333Z" fill="#FF54C7"/>
<path d="M117.868 96.8246C117.923 97.4524 117.715 97.7503 116.956 98.2047C115.075 99.3523 112.703 99.8631 111.942 99.3327C110.85 98.5717 111.274 97.5397 112.895 97.047C113.671 96.8503 114.89 96.3718 115.58 96.0166C116.993 95.3295 117.77 95.6252 117.868 96.8246Z" fill="#FF54C7"/>
<path d="M51.6705 54.4418C52.1852 55.5379 51.6507 55.9521 48.582 56.6165C45.738 57.2407 45.037 57.0473 45.0999 55.6162C45.145 55.0576 45.7226 54.7225 47.6681 54.2589C50.7498 53.5053 51.186 53.5142 51.6705 54.4418Z" fill="#FF54C7"/>
<path d="M109.78 98.9116C109.685 99.1894 109.28 99.8414 108.888 100.404C108.486 100.911 108.101 101.675 108.026 102.065C107.927 102.488 107.528 102.849 106.967 102.95C105.619 103.191 105.196 101.962 105.77 99.6574C106.258 97.6867 106.258 97.6867 107.434 97.6213C108.835 97.5158 109.997 98.1775 109.78 98.9116Z" fill="#FF54C7"/>
<path d="M43.7821 56.6097C43.9558 57.419 43.0944 57.9497 40.6966 58.639C38.8965 59.1056 38.001 59.1208 37.5506 58.7087C36.5075 57.7361 37.3648 56.8584 40.0765 56.142C42.4281 55.5188 43.6446 55.6781 43.7821 56.6097Z" fill="#FF54C7"/>
<path d="M107.612 105.759C107.616 106.106 107.477 107.435 107.304 108.741C106.982 110.827 106.877 111.048 106.09 111.189C105.473 111.299 105.129 111.158 104.87 110.683C104.408 109.722 105.052 105.057 105.755 104.613C106.402 104.179 107.541 104.874 107.612 105.759Z" fill="#FF54C7"/>
<path d="M35.7075 59.2955C35.501 60.0858 34.1212 60.7961 31.6472 61.3832C29.6686 61.8237 29.0699 61.554 29.1198 60.2122C29.1548 59.5974 29.7886 59.2523 31.8724 58.5901C34.6201 57.7513 36.0252 57.9928 35.7075 59.2955Z" fill="#FF54C7"/>
<path d="M106.737 113.995C106.798 115.955 106.296 119.145 105.83 119.46C105.547 119.656 104.978 119.555 104.581 119.278C103.985 118.863 103.855 118.133 104.088 116.034C104.276 114.493 104.617 113.157 104.957 112.952C105.627 112.484 106.699 113.133 106.737 113.995Z" fill="#FF54C7"/>
<path d="M27.8491 61.4873C28.0198 62.442 27.7921 62.6275 25.5699 63.4883C22.5023 64.6451 21.8745 64.6994 21.39 63.7718C20.8423 62.6527 21.2413 62.2916 24.2628 61.201C26.9574 60.2268 27.6383 60.3079 27.8491 61.4873Z" fill="#FF54C7"/>
<path d="M105.821 123.634C105.693 127.134 105.489 127.779 104.448 127.791C103.933 127.825 103.41 127.658 103.248 127.397C102.781 126.727 103.467 121.649 104.113 121.215C105.146 120.509 105.952 121.611 105.821 123.634Z" fill="#FF54C7"/>
<path d="M19.9598 64.5483C20.024 65.2322 19.8065 65.4739 18.552 66.0748C17.7598 66.5062 16.3959 66.9818 15.5074 67.1985C14.1927 67.4625 13.8587 67.3773 13.6922 66.7696C13.3791 65.6665 13.8935 65.1399 16.2842 64.249C19.2956 63.1022 19.8211 63.1242 19.9598 64.5483Z" fill="#FF54C7"/>
<path d="M105.053 130.525C105.09 130.895 104.961 132.28 104.844 133.576C104.598 135.764 104.493 135.986 103.707 136.126C103.234 136.24 102.646 136.026 102.45 135.743C101.929 134.937 102.579 129.982 103.272 129.482C103.942 129.014 105.014 129.663 105.053 130.525Z" fill="#FF54C7"/>
<path d="M12.3543 68.0478C12.3023 68.4048 11.0217 69.1842 9.56564 69.7922C7.56806 70.6128 6.72567 70.7634 6.27532 70.3513C5.36458 69.4709 6.1226 68.5241 8.64163 67.3784C10.3915 66.631 11.1777 66.4905 11.7404 66.8825C12.1707 67.1823 12.4395 67.7138 12.3543 68.0478Z" fill="#FF54C7"/>
<path d="M104.222 138.792C104.259 139.162 104.146 140.312 103.99 141.383C103.674 143.671 102.811 144.839 101.851 144.171C100.958 143.548 101.333 138.352 102.36 137.937C103.274 137.542 104.161 137.963 104.222 138.792Z" fill="#FF54C7"/>
<path d="M4.58872 71.0003C4.65301 71.6842 4.37927 71.936 3.21403 72.5499C2.44489 72.9482 1.03495 73.4899 0.146439 73.7067C-1.37284 74.1231 -1.4621 74.1101 -1.6558 73.1885C-1.87961 72.0984 -1.34514 71.6841 1.83775 70.3619C3.74608 69.5282 4.48022 69.7447 4.58872 71.0003Z" fill="#FF54C7"/>
<path d="M103.083 146.85C103.162 148.429 102.38 152.162 101.869 152.543C100.757 153.293 100.004 151.834 100.276 149.467C100.564 146.865 101.193 145.681 102.162 145.913C103.041 146.133 103.008 146.11 103.083 146.85Z" fill="#FF54C7"/>
<path d="M101.579 157.748C101.175 160.515 101.083 160.648 100.184 160.808C98.8134 161.082 98.5305 160.148 99.0956 157.149C99.6318 154.474 100.264 153.637 101.357 154.398C101.853 154.744 101.891 155.606 101.579 157.748Z" fill="#FF54C7"/>
<path d="M100.292 162.851C100.607 163.316 99.9224 167.756 99.392 168.517C98.9538 169.146 97.7343 169.132 97.2769 168.519C96.9419 167.941 97.7886 163.762 98.5035 162.736C98.9417 162.107 99.758 162.135 100.292 162.851Z" fill="#FF54C7"/>
<path d="M98.6811 172.294C98.5468 172.839 98.2753 174.076 98.0197 175.078C97.699 176.526 97.4784 176.913 96.8707 177.08C95.5199 177.466 95.1447 176.664 95.6087 174.234C96.256 171.046 96.9709 170.02 98.0631 170.781C98.6258 171.173 98.8285 171.659 98.6811 172.294Z" fill="#FF54C7"/>
<path d="M96.7509 179.706C96.7349 179.94 96.4403 181.21 96.0664 182.523C95.453 184.603 95.3016 184.891 94.5384 184.998C93.8976 185.142 93.5767 184.967 93.364 184.426C92.9687 183.511 94.1193 179.249 94.8915 178.705C95.5383 178.271 96.7889 178.945 96.7509 179.706Z" fill="#FF54C7"/>
<path d="M94.2093 187.519C94.39 188.53 92.8682 192.337 92.0961 192.881C91.7561 193.087 91.2306 193.065 90.8665 192.811C90.337 192.442 90.395 191.794 91.0877 189.671C91.7082 187.792 92.1623 186.929 92.7169 186.627C93.6214 186.176 94.0085 186.396 94.2093 187.519Z" fill="#FF54C7"/>
<path d="M91.2217 195.269C91.3823 196.167 89.3853 200.233 88.6291 200.542C88.0415 200.821 86.9162 200.037 86.9512 199.422C86.9672 199.188 87.4403 197.944 88.0589 196.703C88.8419 195.086 89.3262 194.391 89.8547 194.267C90.7662 194.017 91.0641 194.225 91.2217 195.269Z" fill="#FF54C7"/>
<path d="M87.2487 202.384C87.326 202.979 85.83 204.985 84.4743 206.154C83.257 207.125 82.3153 207.207 81.6854 206.276C81.251 205.629 81.5278 205.232 83.9353 202.976C85.3501 201.651 85.9047 201.349 86.4473 201.629C86.8575 201.816 87.2085 202.159 87.2487 202.384Z" fill="#FF54C7"/>
<path d="M80.2324 206.888C80.0359 207.734 78.1827 208.065 77.2559 207.42C76.958 207.212 76.254 207.164 75.6694 207.298C74.814 207.537 74.5362 207.442 74.2041 206.719C73.859 206.085 73.9673 205.718 74.594 205.172C75.7912 204.088 76.5183 204.103 78.5894 205.153C80.1841 205.969 80.4027 206.22 80.2324 206.888Z" fill="#FF54C7"/>
<path d="M73.4886 209.073C73.2742 210.792 71.6982 213.971 70.9782 214.158C70.1789 214.388 69.9573 214.282 69.6382 213.47C69.3393 212.77 71.0415 208.351 71.8136 207.808C72.5396 207.33 73.6088 208.124 73.4886 209.073Z" fill="#FF54C7"/>
<path d="M70.3054 216.54C70.3425 216.91 69.7771 218.286 69.0563 219.603C67.9304 221.572 67.6336 221.857 67.0318 221.732C66.6086 221.634 66.2475 221.235 66.1672 220.786C66.0327 219.709 67.9966 215.62 68.7959 215.39C69.6282 215.183 70.234 215.655 70.3054 216.54Z" fill="#FF54C7"/>
<path d="M59.4229 219.382C60.1573 221.221 60.2216 221.905 59.7633 222.422C58.916 223.356 57.877 222.73 57.1225 220.779L56.4413 219.075L55.1499 220.928C53.3512 223.51 52.4537 224.163 51.6523 223.408C51.0595 222.847 51.1317 222.603 52.7229 220.319C54.2679 218.101 54.5417 217.85 55.4112 218.013C56.1814 218.107 56.396 218.011 56.3057 217.505C56.2254 217.056 56.3868 216.824 56.9945 216.658C58.0976 216.345 58.3925 216.698 59.4229 219.382Z" fill="#FF54C7"/>
<path d="M66.1775 223.593C66.2679 224.098 66.1105 224.677 65.8267 224.872C65.5429 225.068 65.1439 225.429 64.9594 225.694C64.3598 226.554 61.9279 226.728 60.8687 225.99C60.3391 225.621 59.981 225.077 60.0432 224.776C60.2597 224.042 61.4911 223.474 62.0869 223.889C62.3517 224.074 62.9493 223.851 63.4738 223.381C64.6279 222.218 65.9567 222.357 66.1775 223.593Z" fill="#FF54C7"/>
<path d="M50.6204 224.605C50.8743 225.864 47.8599 227.156 45.3938 226.814C44.3558 226.681 44.0018 226.484 43.8683 225.899C43.5552 224.796 43.8952 224.59 46.9378 224.104C49.6104 223.656 50.503 223.786 50.6204 224.605Z" fill="#FF54C7"/>
<path d="M41.8245 221.776C43.9621 224.495 42.1612 226.092 39.8291 223.582C39.2163 222.909 38.5141 222.223 38.2925 222.118C37.2966 221.571 37.114 221.198 37.6213 220.47C38.6821 218.948 39.9057 219.309 41.8245 221.776Z" fill="#FF54C7"/>
<path d="M35.7494 221.031C35.8378 222.174 35.1609 222.44 32.2295 222.414C29.3874 222.4 28.3714 221.741 29.2477 220.484C29.5936 219.987 30.5383 219.76 32.4618 219.822C35.5486 219.908 35.671 219.944 35.7494 221.031Z" fill="#FF54C7"/>
<path d="M27.4051 220.62C27.6129 221.945 26.7113 222.251 23.8551 221.834C21.0651 221.463 20.0952 220.739 21.0678 219.695C21.4569 219.278 22.544 219.2 24.4645 219.407C26.9536 219.716 27.2645 219.834 27.4051 220.62Z" fill="#FF54C7"/>
<path d="M19.2794 219.49C19.3426 219.682 19.1652 220.148 18.9346 220.479C18.6117 220.943 17.7723 220.948 16.0664 220.644C13.2131 220.082 12.1439 219.288 12.8127 218.328C13.5276 217.302 19.0917 218.278 19.2794 219.49Z" fill="#FF54C7"/>
<path d="M11.0657 218.086C10.7841 219.266 9.98782 219.351 7.58684 218.563C4.81878 217.667 4.07353 216.901 4.97697 215.958C5.99571 214.848 11.4065 216.75 11.0657 218.086Z" fill="#FF54C7"/>
<path d="M3.20075 215.557C3.29922 216.757 2.166 216.901 -0.62213 215.893C-3.21167 215.023 -3.92382 214.281 -3.02039 213.337C-2.36763 212.612 -0.92948 212.876 1.84264 214.119C2.7854 214.53 3.1465 214.93 3.20075 215.557Z" fill="#FF54C7"/>
</svg>
