<svg width="126" height="256" viewBox="0 0 126 256" fill="none" xmlns="http://www.w3.org/2000/svg">
<path d="M60.7283 56.6269C59.9458 57.7621 60.0861 58.5985 61.1792 58.9677C61.8561 59.2336 62.1209 59.0491 63.0387 57.9671C63.5953 57.2843 64.473 56.427 64.9364 56.1041C65.9624 55.3892 66.1732 54.2099 65.3449 53.6562C64.6981 53.2218 61.8818 55.0366 60.7283 56.6269Z" fill="#FF54C7"/>
<path d="M67.0955 52.8371C66.997 54.0365 68.0209 54.3065 70.5142 53.651C73.3414 52.9103 73.5731 52.7489 73.6544 51.8072C73.7529 50.6078 72.6729 50.3278 70.312 50.8911C67.6072 51.5957 67.1538 51.8623 67.0955 52.8371Z" fill="#FF54C7"/>
<path d="M57.8436 63.0625C57.1803 65.6388 57.6264 67.1963 58.9291 66.8786C59.898 66.6461 61.1855 61.2258 60.4535 60.4575C59.5039 59.4475 58.4839 60.4532 57.8436 63.0625Z" fill="#FF54C7"/>
<path d="M41.9179 74.3566C42.1374 75.2361 43.419 75.5231 44.2796 74.9235C44.6436 74.6699 45.6786 74.3912 46.5281 74.3402C48.3724 74.2352 48.3062 74.2813 48.4738 73.1812C48.7278 71.9227 47.5655 71.4541 45.4494 71.9452C43.3001 72.4593 41.6884 73.5332 41.9179 74.3566Z" fill="#FF54C7"/>
<path d="M75.2107 51.0134C74.9899 52.2489 75.6898 52.5479 78.6313 52.4651C81.695 52.3463 82.5686 51.8359 81.6923 50.5782C81.2772 49.9824 80.491 49.8419 78.4451 49.9399C75.3713 50.1149 75.3713 50.1149 75.2107 51.0134Z" fill="#FF54C7"/>
<path d="M41.3062 78.0774C41.4655 79.2939 43.8388 82.0652 44.939 82.2329C46.5906 82.5571 46.6229 81.4038 45.0317 79.12C44.2246 77.9616 43.2951 76.8392 42.9883 76.6105C42.16 76.0568 41.17 76.894 41.3062 78.0774Z" fill="#FF54C7"/>
<path d="M50.1756 73.5163C50.3229 74.1512 54.3683 75.5117 55.7302 75.3494C56.2988 75.2482 56.5506 74.9745 56.661 74.3567C56.9149 73.0982 56.7334 72.9788 53.9024 72.4438C51.3522 71.9591 49.8609 72.359 50.1756 73.5163Z" fill="#FF54C7"/>
<path d="M57.0904 71.3599C57.0578 74.1358 57.8018 75.4858 59.0755 74.8441C60.0945 74.3308 60.0532 69.0497 59.0263 68.6344C57.7056 68.0796 57.1951 68.8286 57.0904 71.3599Z" fill="#FF54C7"/>
<path d="M83.5979 51.0698C83.3972 52.193 83.9417 52.5511 86.5982 52.7651C89.311 52.9892 90.6107 52.5261 90.296 51.3687C90.2078 50.8893 89.2833 50.5502 87.3077 50.255C84.3673 49.8454 83.7987 49.9466 83.5979 51.0698Z" fill="#FF54C7"/>
<path d="M91.9034 51.6763C91.6826 52.9118 92.567 53.4755 95.1905 53.7126C97.9263 53.9698 99.0676 53.4204 98.426 52.1467C98.1463 51.6041 97.3009 51.3081 95.5298 51.1654C92.2455 50.8971 92.0339 50.9462 91.9034 51.6763Z" fill="#FF54C7"/>
<path d="M46.9052 83.7162C47.0034 84.1394 47.7354 84.9077 48.5306 85.4845L49.9956 86.5287L48.8141 87.3027C47.7319 88.0076 47.6687 88.1991 48.176 88.9273C48.6372 89.5892 49.1196 89.6465 51.3681 89.0631C54.764 88.2213 55.1451 87.7099 53.5328 86.0308C51.8643 84.3417 48.1971 82.3244 47.3767 82.6993C47.0327 82.8407 46.807 83.2929 46.9052 83.7162Z" fill="#FF54C7"/>
<path d="M41.8666 92.0892C41.2597 93.0529 41.2356 93.5122 41.7269 94.0057C42.4027 94.764 42.7567 94.5665 45.2703 92.176C47.7177 89.8317 46.684 87.9953 43.9699 89.8863C43.2648 90.4267 42.2779 91.4094 41.8666 92.0892Z" fill="#FF54C7"/>
<path d="M100.039 53.1333C99.845 54.0549 100.954 54.6588 103.435 55.0443C105.107 55.2562 106.303 55.2093 106.509 54.8693C107.258 53.7572 106.506 53.1013 103.887 52.5172C101.426 52.0194 100.176 52.2017 100.039 53.1333Z" fill="#FF54C7"/>
<path d="M42.1315 96.8246C42.0773 97.4524 42.2848 97.7503 43.0439 98.2047C44.9251 99.3523 47.2968 99.8631 48.0581 99.3327C49.1503 98.5717 48.7263 97.5397 47.1047 97.047C46.3285 96.8503 45.1101 96.3718 44.4202 96.0166C43.0073 95.3295 42.23 95.6252 42.1315 96.8246Z" fill="#FF54C7"/>
<path d="M108.329 54.4418C107.815 55.5379 108.349 55.9521 111.418 56.6165C114.262 57.2407 114.963 57.0473 114.9 55.6162C114.855 55.0576 114.277 54.7225 112.332 54.2589C109.25 53.5053 108.814 53.5142 108.329 54.4418Z" fill="#FF54C7"/>
<path d="M50.22 98.9116C50.3152 99.1894 50.7202 99.8414 51.1123 100.404C51.5143 100.911 51.8993 101.675 51.9745 102.065C52.0727 102.488 52.4718 102.849 53.0334 102.95C54.3812 103.191 54.8036 101.962 54.2303 99.6574C53.7422 97.6867 53.7422 97.6867 52.5659 97.6213C51.1649 97.5158 50.0035 98.1775 50.22 98.9116Z" fill="#FF54C7"/>
<path d="M116.218 56.6097C116.044 57.419 116.906 57.9497 119.303 58.639C121.103 59.1056 121.999 59.1208 122.449 58.7087C123.492 57.7361 122.635 56.8584 119.924 56.142C117.572 55.5188 116.355 55.6781 116.218 56.6097Z" fill="#FF54C7"/>
<path d="M52.3882 105.759C52.3841 106.106 52.5233 107.435 52.6956 108.741C53.0182 110.827 53.1234 111.048 53.9097 111.189C54.5274 111.299 54.8714 111.158 55.1302 110.683C55.5917 109.722 54.9476 105.057 54.2446 104.613C53.5979 104.179 52.4595 104.874 52.3882 105.759Z" fill="#FF54C7"/>
<path d="M124.293 59.2955C124.499 60.0858 125.879 60.7961 128.353 61.3832C130.331 61.8237 130.93 61.554 130.88 60.2122C130.845 59.5974 130.211 59.2523 128.128 58.5901C125.38 57.7513 123.975 57.9928 124.293 59.2955Z" fill="#FF54C7"/>
<path d="M53.2629 113.995C53.2024 115.955 53.7043 119.145 54.1696 119.46C54.4534 119.656 55.022 119.555 55.4192 119.278C56.015 118.863 56.1455 118.133 55.9121 116.034C55.7238 114.493 55.3831 113.157 55.0431 112.952C54.3733 112.484 53.3011 113.133 53.2629 113.995Z" fill="#FF54C7"/>
<path d="M54.1792 123.634C54.3071 127.134 54.5105 127.779 55.5515 127.791C56.067 127.825 56.5895 127.658 56.752 127.397C57.2195 126.727 56.5333 121.649 55.8865 121.215C54.8537 120.509 54.0482 121.611 54.1792 123.634Z" fill="#FF54C7"/>
<path d="M54.9475 130.525C54.9103 130.895 55.0395 132.28 55.1556 133.576C55.402 135.764 55.5072 135.986 56.2934 136.126C56.7658 136.24 57.3545 136.026 57.5501 135.743C58.0707 134.937 57.4206 129.982 56.7277 129.482C56.0579 129.014 54.9857 129.663 54.9475 130.525Z" fill="#FF54C7"/>
<path d="M55.7778 138.792C55.7406 139.162 55.8537 140.312 56.01 141.383C56.3256 143.671 57.1888 144.839 58.1487 144.171C59.0423 143.548 58.6671 138.352 57.6402 137.937C56.7257 137.542 55.8391 137.963 55.7778 138.792Z" fill="#FF54C7"/>
<path d="M56.9174 146.85C56.8379 148.429 57.6196 152.162 58.131 152.543C59.2431 153.293 59.9964 151.834 59.724 149.467C59.4356 146.865 58.807 145.681 57.8382 145.913C56.9586 146.133 56.9917 146.11 56.9174 146.85Z" fill="#FF54C7"/>
<path d="M58.4212 157.748C58.8249 160.515 58.9171 160.648 59.8157 160.808C61.1866 161.082 61.4695 160.148 60.9044 157.149C60.3682 154.474 59.7356 153.637 58.6433 154.398C58.1469 154.744 58.1086 155.606 58.4212 157.748Z" fill="#FF54C7"/>
<path d="M59.7084 162.851C59.3934 163.316 60.0776 167.756 60.608 168.517C61.0462 169.146 62.2657 169.132 62.7231 168.519C63.0581 167.941 62.2114 163.762 61.4965 162.736C61.0583 162.107 60.242 162.135 59.7084 162.851Z" fill="#FF54C7"/>
<path d="M61.3189 172.294C61.4532 172.839 61.7247 174.076 61.9803 175.078C62.301 176.526 62.5216 176.913 63.1293 177.08C64.4801 177.466 64.8553 176.664 64.3913 174.234C63.744 171.046 63.0291 170.02 61.9369 170.781C61.3742 171.173 61.1715 171.659 61.3189 172.294Z" fill="#FF54C7"/>
<path d="M63.2491 179.706C63.2651 179.94 63.5597 181.21 63.9336 182.523C64.547 184.603 64.6984 184.891 65.4616 184.998C66.1024 185.142 66.4233 184.967 66.636 184.426C67.0313 183.511 65.8807 179.249 65.1085 178.705C64.4617 178.271 63.2111 178.945 63.2491 179.706Z" fill="#FF54C7"/>
<path d="M65.7907 187.519C65.61 188.53 67.1318 192.337 67.9039 192.881C68.2439 193.087 68.7694 193.065 69.1335 192.811C69.663 192.442 69.605 191.794 68.9123 189.671C68.2918 187.792 67.8377 186.929 67.2831 186.627C66.3786 186.176 65.9915 186.396 65.7907 187.519Z" fill="#FF54C7"/>
<path d="M68.7783 195.269C68.6177 196.167 70.6147 200.233 71.3709 200.542C71.9585 200.821 73.0838 200.037 73.0488 199.422C73.0328 199.188 72.5597 197.944 71.9411 196.703C71.1581 195.086 70.6738 194.391 70.1453 194.267C69.2338 194.017 68.9359 194.225 68.7783 195.269Z" fill="#FF54C7"/>
<path d="M72.7513 202.384C72.674 202.979 74.17 204.985 75.5257 206.154C76.743 207.125 77.6847 207.207 78.3146 206.276C78.749 205.629 78.4722 205.232 76.0647 202.976C74.6499 201.651 74.0953 201.349 73.5527 201.629C73.1425 201.816 72.7915 202.159 72.7513 202.384Z" fill="#FF54C7"/>
<path d="M79.7676 206.888C79.9641 207.734 81.8173 208.065 82.7441 207.42C83.042 207.212 83.746 207.164 84.3306 207.298C85.186 207.537 85.4638 207.442 85.7959 206.719C86.141 206.085 86.0327 205.718 85.406 205.172C84.2088 204.088 83.4817 204.103 81.4106 205.153C79.8159 205.969 79.5973 206.22 79.7676 206.888Z" fill="#FF54C7"/>
<path d="M86.5114 209.073C86.7258 210.792 88.3018 213.971 89.0218 214.158C89.8211 214.388 90.0427 214.282 90.3618 213.47C90.6607 212.77 88.9585 208.351 88.1864 207.808C87.4604 207.33 86.3912 208.124 86.5114 209.073Z" fill="#FF54C7"/>
<path d="M89.6946 216.54C89.6575 216.91 90.2229 218.286 90.9437 219.603C92.0696 221.572 92.3664 221.857 92.9682 221.732C93.3914 221.634 93.7525 221.235 93.8328 220.786C93.9673 219.709 92.0034 215.62 91.2041 215.39C90.3718 215.183 89.766 215.655 89.6946 216.54Z" fill="#FF54C7"/>
<path d="M100.577 219.382C99.8427 221.221 99.7784 221.905 100.237 222.422C101.084 223.356 102.123 222.73 102.877 220.779L103.559 219.075L104.85 220.928C106.649 223.51 107.546 224.163 108.348 223.408C108.941 222.847 108.868 222.603 107.277 220.319C105.732 218.101 105.458 217.85 104.589 218.013C103.819 218.107 103.604 218.011 103.694 217.505C103.775 217.056 103.613 216.824 103.005 216.658C101.902 216.345 101.607 216.698 100.577 219.382Z" fill="#FF54C7"/>
<path d="M93.8225 223.593C93.7321 224.098 93.8895 224.677 94.1733 224.872C94.4571 225.068 94.8561 225.429 95.0406 225.694C95.6402 226.554 98.0721 226.728 99.1313 225.99C99.6609 225.621 100.019 225.077 99.9568 224.776C99.7403 224.042 98.5089 223.474 97.9131 223.889C97.6483 224.074 97.0507 223.851 96.5262 223.381C95.3721 222.218 94.0433 222.357 93.8225 223.593Z" fill="#FF54C7"/>
<path d="M109.38 224.605C109.126 225.864 112.14 227.156 114.606 226.814C115.644 226.681 115.998 226.484 116.132 225.899C116.445 224.796 116.105 224.59 113.062 224.104C110.39 223.656 109.497 223.786 109.38 224.605Z" fill="#FF54C7"/>
<path d="M118.175 221.776C116.038 224.495 117.839 226.092 120.171 223.582C120.784 222.909 121.486 222.223 121.708 222.118C122.703 221.571 122.886 221.198 122.379 220.47C121.318 218.948 120.094 219.309 118.175 221.776Z" fill="#FF54C7"/>
<path d="M124.251 221.031C124.162 222.174 124.839 222.44 127.77 222.414C130.613 222.4 131.629 221.741 130.752 220.484C130.406 219.987 129.462 219.76 127.538 219.822C124.451 219.908 124.329 219.944 124.251 221.031Z" fill="#FF54C7"/>
</svg>
