<svg width="188" height="256" viewBox="0 0 188 256" fill="none" xmlns="http://www.w3.org/2000/svg">
<path d="M127.272 56.6271C128.054 57.7622 127.914 58.5986 126.821 58.9678C126.144 59.2337 125.879 59.0492 124.961 57.9673C124.405 57.2844 123.527 56.4271 123.064 56.1042C122.038 55.3893 121.827 54.21 122.655 53.6563C123.302 53.222 126.118 55.0367 127.272 56.6271Z" fill="#FF54C7"/>
<path d="M120.904 52.8372C121.003 54.0366 119.979 54.3065 117.486 53.651C114.659 52.9104 114.427 52.7489 114.346 51.8073C114.247 50.6078 115.327 50.3279 117.688 50.8911C120.393 51.5957 120.846 51.8624 120.904 52.8372Z" fill="#FF54C7"/>
<path d="M130.156 63.0627C130.82 65.6389 130.374 67.1965 129.071 66.8788C128.102 66.6462 126.815 61.2259 127.546 60.4576C128.496 59.4476 129.516 60.4533 130.156 63.0627Z" fill="#FF54C7"/>
<path d="M146.082 74.3566C145.863 75.2362 144.581 75.5232 143.72 74.9236C143.356 74.6699 142.321 74.3913 141.472 74.3403C139.628 74.2353 139.694 74.2814 139.526 73.1813C139.272 71.9227 140.435 71.4542 142.551 71.9453C144.7 72.4594 146.312 73.5332 146.082 74.3566Z" fill="#FF54C7"/>
<path d="M112.789 51.0134C113.01 52.2489 112.31 52.5479 109.369 52.4651C106.305 52.3463 105.431 51.8359 106.308 50.5782C106.723 49.9824 107.509 49.8419 109.555 49.9399C112.629 50.1149 112.629 50.1149 112.789 51.0134Z" fill="#FF54C7"/>
<path d="M146.694 78.0775C146.535 79.294 144.161 82.0653 143.061 82.233C141.409 82.5571 141.377 81.4038 142.968 79.1201C143.775 77.9616 144.705 76.8393 145.012 76.6106C145.84 76.0569 146.83 76.8941 146.694 78.0775Z" fill="#FF54C7"/>
<path d="M137.824 73.5165C137.677 74.1513 133.632 75.5118 132.27 75.3496C131.701 75.2484 131.449 74.9746 131.339 74.3569C131.085 73.0983 131.267 72.9789 134.098 72.444C136.648 71.9592 138.139 72.3591 137.824 73.5165Z" fill="#FF54C7"/>
<path d="M130.91 71.3599C130.942 74.1359 130.198 75.4858 128.925 74.8442C127.906 74.3309 127.947 69.0498 128.974 68.6344C130.294 68.0796 130.805 68.8287 130.91 71.3599Z" fill="#FF54C7"/>
<path d="M104.402 51.0699C104.603 52.193 104.058 52.5511 101.402 52.7652C98.689 52.9892 97.3893 52.5261 97.704 51.3688C97.7922 50.8894 98.7167 50.5503 100.692 50.2551C103.633 49.8455 104.201 49.9467 104.402 51.0699Z" fill="#FF54C7"/>
<path d="M96.0966 51.6764C96.3174 52.9119 95.433 53.4756 92.8095 53.7127C90.0737 53.9699 88.9324 53.4205 89.574 52.1467C89.8537 51.6041 90.6991 51.3081 92.4702 51.1655C95.7545 50.8972 95.9661 50.9463 96.0966 51.6764Z" fill="#FF54C7"/>
<path d="M141.095 83.7163C140.997 84.1395 140.265 84.9078 139.469 85.4846L138.004 86.5288L139.186 87.3028C140.268 88.0077 140.331 88.1992 139.824 88.9274C139.363 89.5894 138.88 89.6466 136.632 89.0633C133.236 88.2214 132.855 87.71 134.467 86.0309C136.136 84.3418 139.803 82.3245 140.623 82.6995C140.967 82.8408 141.193 83.2931 141.095 83.7163Z" fill="#FF54C7"/>
<path d="M146.133 92.0893C146.74 93.053 146.764 93.5123 146.273 94.0058C145.597 94.764 145.243 94.5665 142.73 92.1761C140.282 89.8318 141.316 87.9953 144.03 89.8863C144.735 90.4268 145.722 91.4094 146.133 92.0893Z" fill="#FF54C7"/>
<path d="M87.9613 53.1335C88.155 54.0551 87.0459 54.659 84.5649 55.0445C82.8932 55.2563 81.6967 55.2094 81.4911 54.8694C80.7418 53.7574 81.4938 53.1014 84.1132 52.5173C86.5742 52.0195 87.8238 52.2018 87.9613 53.1335Z" fill="#FF54C7"/>
<path d="M145.868 96.8247C145.923 97.4524 145.715 97.7503 144.956 98.2047C143.075 99.3523 140.703 99.8632 139.942 99.3328C138.85 98.5717 139.274 97.5397 140.895 97.0471C141.671 96.8504 142.89 96.3718 143.58 96.0167C144.993 95.3295 145.77 95.6252 145.868 96.8247Z" fill="#FF54C7"/>
<path d="M79.6705 54.4419C80.1852 55.5379 79.6507 55.9522 76.582 56.6166C73.738 57.2408 73.037 57.0474 73.0999 55.6163C73.145 55.0577 73.7226 54.7226 75.6681 54.259C78.7498 53.5053 79.186 53.5143 79.6705 54.4419Z" fill="#FF54C7"/>
<path d="M137.78 98.9117C137.685 99.1896 137.28 99.8415 136.888 100.404C136.486 100.911 136.101 101.675 136.026 102.065C135.927 102.488 135.528 102.849 134.967 102.95C133.619 103.191 133.196 101.962 133.77 99.6575C134.258 97.6868 134.258 97.6868 135.434 97.6214C136.835 97.5159 137.997 98.1776 137.78 98.9117Z" fill="#FF54C7"/>
<path d="M71.7821 56.6098C71.9558 57.4191 71.0944 57.9497 68.6966 58.6391C66.8965 59.1057 66.001 59.1209 65.5506 58.7088C64.5075 57.7361 65.3648 56.8585 68.0765 56.142C70.4281 55.5189 71.6446 55.6781 71.7821 56.6098Z" fill="#FF54C7"/>
<path d="M135.612 105.759C135.616 106.106 135.477 107.435 135.304 108.741C134.982 110.827 134.877 111.048 134.09 111.189C133.473 111.299 133.129 111.158 132.87 110.683C132.408 109.722 133.052 105.057 133.755 104.613C134.402 104.179 135.541 104.874 135.612 105.759Z" fill="#FF54C7"/>
<path d="M63.7075 59.2956C63.501 60.0859 62.1212 60.7961 59.6472 61.3832C57.6686 61.8238 57.0699 61.5541 57.1198 60.2123C57.1548 59.5975 57.7886 59.2524 59.8724 58.5902C62.6201 57.7514 64.0252 57.9928 63.7075 59.2956Z" fill="#FF54C7"/>
<path d="M134.737 113.996C134.798 115.955 134.296 119.145 133.83 119.46C133.547 119.656 132.978 119.555 132.581 119.278C131.985 118.863 131.855 118.133 132.088 116.034C132.276 114.493 132.617 113.158 132.957 112.952C133.627 112.484 134.699 113.133 134.737 113.996Z" fill="#FF54C7"/>
<path d="M55.8491 61.4873C56.0198 62.442 55.7921 62.6275 53.5699 63.4883C50.5023 64.6451 49.8745 64.6994 49.39 63.7718C48.8423 62.6527 49.2413 62.2916 52.2628 61.201C54.9574 60.2268 55.6383 60.3079 55.8491 61.4873Z" fill="#FF54C7"/>
<path d="M133.821 123.634C133.693 127.134 133.489 127.779 132.448 127.791C131.933 127.825 131.41 127.658 131.248 127.397C130.781 126.727 131.467 121.649 132.113 121.215C133.146 120.509 133.952 121.611 133.821 123.634Z" fill="#FF54C7"/>
<path d="M47.9598 64.5484C48.024 65.2323 47.8065 65.474 46.552 66.075C45.7598 66.5063 44.3959 66.9819 43.5074 67.1986C42.1927 67.4626 41.8587 67.3774 41.6922 66.7697C41.3791 65.6666 41.8935 65.14 44.2842 64.2491C47.2956 63.1023 47.8211 63.1243 47.9598 64.5484Z" fill="#FF54C7"/>
<path d="M133.053 130.525C133.09 130.895 132.961 132.28 132.844 133.576C132.598 135.764 132.493 135.986 131.707 136.127C131.234 136.24 130.646 136.026 130.45 135.743C129.929 134.937 130.579 129.982 131.272 129.482C131.942 129.014 133.014 129.663 133.053 130.525Z" fill="#FF54C7"/>
<path d="M40.3543 68.0478C40.3023 68.4049 39.0217 69.1843 37.5656 69.7922C35.5681 70.6129 34.7257 70.7635 34.2753 70.3514C33.3646 69.471 34.1226 68.5242 36.6416 67.3785C38.3915 66.6311 39.1777 66.4906 39.7404 66.8826C40.1707 67.1824 40.4395 67.7139 40.3543 68.0478Z" fill="#FF54C7"/>
<path d="M132.222 138.792C132.259 139.162 132.146 140.312 131.99 141.383C131.674 143.671 130.811 144.84 129.851 144.171C128.958 143.548 129.333 138.352 130.36 137.937C131.274 137.542 132.161 137.963 132.222 138.792Z" fill="#FF54C7"/>
<path d="M32.5887 71.0004C32.653 71.6843 32.3793 71.9361 31.214 72.55C30.4449 72.9483 29.0349 73.4901 28.1464 73.7068C26.6272 74.1233 26.5379 74.1102 26.3442 73.1886C26.1204 72.0985 26.6549 71.6843 29.8378 70.362C31.7461 69.5283 32.4802 69.7448 32.5887 71.0004Z" fill="#FF54C7"/>
<path d="M131.083 146.85C131.162 148.43 130.38 152.162 129.869 152.544C128.757 153.293 128.004 151.834 128.276 149.467C128.564 146.865 129.193 145.681 130.162 145.913C131.041 146.133 131.008 146.11 131.083 146.85Z" fill="#FF54C7"/>
<path d="M24.9931 74.6491C24.8949 75.0723 23.8952 75.8016 22.5384 76.4787C20.7524 77.3485 20.0223 77.479 19.4266 77.0639C18.3012 76.2798 19.0492 75.2768 21.6374 74.0319C23.9419 72.9825 25.3469 73.224 24.9931 74.6491Z" fill="#FF54C7"/>
<path d="M129.579 157.748C129.175 160.515 129.083 160.648 128.184 160.808C126.813 161.082 126.53 160.148 127.096 157.149C127.632 154.474 128.264 153.637 129.357 154.398C129.853 154.744 129.891 155.606 129.579 157.748Z" fill="#FF54C7"/>
<path d="M17.6408 77.8394C17.7713 78.5695 17.1345 79.06 14.7509 80.1525C13.0672 80.946 12.2018 81.1296 11.7053 80.7837C10.4807 79.9305 11.1494 78.9706 13.7246 77.8149C15.9498 76.8087 17.427 76.8055 17.6408 77.8394Z" fill="#FF54C7"/>
<path d="M128.292 162.851C128.607 163.316 127.922 167.756 127.392 168.517C126.954 169.146 125.734 169.132 125.277 168.519C124.942 167.941 125.789 163.762 126.504 162.736C126.942 162.107 127.758 162.135 128.292 162.851Z" fill="#FF54C7"/>
<path d="M10.1054 81.8328C10.0202 82.1667 8.839 83.0153 7.48222 83.6925C5.60401 84.6947 4.85088 84.8582 4.28821 84.4662C3.09667 83.636 3.65013 82.8417 6.26439 81.4182C8.19876 80.406 8.83957 80.2625 9.46844 80.7006C9.89872 81.0004 10.1676 81.5319 10.1054 81.8328Z" fill="#FF54C7"/>
<path d="M126.681 172.294C126.547 172.839 126.275 174.076 126.02 175.078C125.699 176.526 125.478 176.913 124.871 177.08C123.52 177.466 123.145 176.664 123.609 174.234C124.256 171.047 124.971 170.021 126.063 170.782C126.626 171.174 126.828 171.659 126.681 172.294Z" fill="#FF54C7"/>
<path d="M2.61608 85.5123C2.32144 86.782 -2.15096 89.3199 -3.04461 88.6973C-3.2763 88.5359 -3.51205 88.0274 -3.55925 87.6012C-3.64768 86.458 1.14159 83.7475 2.10144 84.4162C2.46552 84.6699 2.70127 85.1783 2.61608 85.5123Z" fill="#FF54C7"/>
<path d="M124.751 179.706C124.735 179.94 124.44 181.21 124.066 182.523C123.453 184.603 123.302 184.891 122.538 184.998C121.898 185.142 121.577 184.967 121.364 184.426C120.969 183.511 122.119 179.249 122.891 178.705C123.538 178.271 124.789 178.945 124.751 179.706Z" fill="#FF54C7"/>
<path d="M122.209 187.519C122.39 188.53 120.868 192.337 120.096 192.881C119.756 193.087 119.231 193.065 118.867 192.811C118.337 192.442 118.395 191.794 119.088 189.671C119.708 187.793 120.162 186.929 120.717 186.627C121.621 186.176 122.009 186.396 122.209 187.519Z" fill="#FF54C7"/>
<path d="M119.222 195.269C119.382 196.167 117.385 200.233 116.629 200.542C116.042 200.821 114.916 200.037 114.951 199.422C114.967 199.188 115.44 197.944 116.059 196.704C116.842 195.086 117.326 194.391 117.855 194.267C118.766 194.017 119.064 194.225 119.222 195.269Z" fill="#FF54C7"/>
<path d="M115.249 202.384C115.326 202.979 113.83 204.985 112.474 206.154C111.257 207.125 110.315 207.207 109.685 206.276C109.251 205.629 109.528 205.232 111.935 202.976C113.35 201.651 113.905 201.349 114.447 201.629C114.857 201.817 115.209 202.159 115.249 202.384Z" fill="#FF54C7"/>
<path d="M108.232 206.888C108.036 207.734 106.183 208.066 105.256 207.42C104.958 207.212 104.254 207.164 103.669 207.298C102.814 207.538 102.536 207.442 102.204 206.719C101.859 206.086 101.967 205.719 102.594 205.172C103.791 204.089 104.518 204.103 106.589 205.153C108.184 205.969 108.403 206.22 108.232 206.888Z" fill="#FF54C7"/>
<path d="M101.489 209.073C101.274 210.792 99.6982 213.971 98.9782 214.158C98.1789 214.388 97.9573 214.283 97.6382 213.47C97.3393 212.77 99.0415 208.351 99.8136 207.808C100.54 207.33 101.609 208.124 101.489 209.073Z" fill="#FF54C7"/>
<path d="M98.3054 216.54C98.3425 216.91 97.7771 218.286 97.0563 219.603C95.9304 221.572 95.6336 221.857 95.0318 221.733C94.6086 221.634 94.2475 221.235 94.1672 220.786C94.0327 219.709 95.9966 215.62 96.7959 215.39C97.6282 215.183 98.234 215.655 98.3054 216.54Z" fill="#FF54C7"/>
<path d="M87.4229 219.382C88.1573 221.222 88.2216 221.905 87.7633 222.422C86.916 223.356 85.877 222.73 85.1225 220.779L84.4413 219.075L83.1499 220.928C81.3512 223.51 80.4537 224.163 79.6523 223.408C79.0595 222.848 79.1317 222.603 80.7229 220.319C82.2679 218.101 82.5417 217.85 83.4112 218.013C84.1814 218.107 84.396 218.011 84.3057 217.505C84.2254 217.056 84.3868 216.825 84.9945 216.658C86.0976 216.345 86.3925 216.698 87.4229 219.382Z" fill="#FF54C7"/>
<path d="M94.1775 223.593C94.2679 224.098 94.1105 224.677 93.8267 224.873C93.5429 225.068 93.1439 225.429 92.9594 225.694C92.3598 226.555 89.9279 226.728 88.8687 225.991C88.3391 225.622 87.981 225.077 88.0432 224.776C88.2597 224.042 89.4911 223.474 90.0869 223.889C90.3517 224.074 90.9493 223.851 91.4738 223.381C92.6279 222.218 93.9567 222.357 94.1775 223.593Z" fill="#FF54C7"/>
<path d="M78.6204 224.605C78.8743 225.864 75.8599 227.156 73.3938 226.814C72.3558 226.681 72.0018 226.484 71.8683 225.899C71.5552 224.796 71.8952 224.59 74.9378 224.104C77.6104 223.656 78.503 223.786 78.6204 224.605Z" fill="#FF54C7"/>
<path d="M69.8245 221.776C71.9621 224.495 70.1612 226.092 67.8291 223.582C67.2163 222.909 66.5141 222.223 66.2925 222.118C65.2966 221.572 65.114 221.198 65.6213 220.47C66.6821 218.948 67.9057 219.309 69.8245 221.776Z" fill="#FF54C7"/>
<path d="M63.7494 221.031C63.8378 222.174 63.1609 222.44 60.2295 222.414C57.3874 222.4 56.3714 221.741 57.2477 220.484C57.5936 219.987 58.5383 219.76 60.4618 219.822C63.5486 219.908 63.671 219.944 63.7494 221.031Z" fill="#FF54C7"/>
<path d="M55.4051 220.62C55.6129 221.945 54.7113 222.251 51.8551 221.834C49.0651 221.464 48.0952 220.739 49.0678 219.696C49.4569 219.278 50.544 219.2 52.4645 219.407C54.9536 219.716 55.2645 219.834 55.4051 220.62Z" fill="#FF54C7"/>
<path d="M47.2794 219.49C47.3426 219.682 47.1652 220.148 46.9346 220.479C46.6117 220.943 45.7723 220.948 44.0664 220.644C41.2131 220.082 40.1439 219.288 40.8127 218.328C41.5276 217.302 47.0917 218.278 47.2794 219.49Z" fill="#FF54C7"/>
<path d="M39.0657 218.086C38.7841 219.266 37.9878 219.351 35.5868 218.563C32.8188 217.667 32.0735 216.902 32.977 215.958C33.9957 214.848 39.4065 216.75 39.0657 218.086Z" fill="#FF54C7"/>
<path d="M31.2008 215.557C31.2992 216.757 30.166 216.901 27.3779 215.893C24.7883 215.023 24.0762 214.281 24.9796 213.337C25.6324 212.612 27.0705 212.876 29.8426 214.12C30.7854 214.531 31.1465 214.93 31.2008 215.557Z" fill="#FF54C7"/>
<path d="M23.4365 212.561C23.5219 213.849 22.3456 213.915 19.739 212.787C17.2547 211.695 16.6418 211.022 17.3106 210.062C17.864 209.268 19.0344 209.493 21.615 210.8C22.988 211.511 23.3722 211.877 23.4365 212.561Z" fill="#FF54C7"/>
<path d="M15.8617 208.413C16.0242 208.673 15.9922 209.143 15.7616 209.474C15.5541 209.772 15.0557 210.063 14.7087 210.068C13.6778 210.136 9.92869 207.966 9.69891 207.167C9.39588 206.12 10.0126 205.517 11.0706 205.763C12.3172 206.091 15.4705 207.845 15.8617 208.413Z" fill="#FF54C7"/>
<path d="M8.54739 204.591C8.90658 205.628 7.90683 206.357 6.7294 205.93C6.26304 205.753 5.08154 204.979 4.13471 204.221C2.64828 203.038 2.48577 202.777 2.84769 202.046C3.29182 201.126 3.55959 201.165 6.29264 202.676C7.60952 203.397 8.35776 204.017 8.54739 204.591Z" fill="#FF54C7"/>
<path d="M0.225233 198.601C1.76484 199.919 1.86115 200.134 1.33075 200.895C0.777293 201.69 0.654938 201.653 -1.66493 200.185C-3.56455 198.959 -4.09114 198.445 -4.14539 197.817C-4.19964 197.189 -4.02519 196.868 -3.48368 196.656C-2.62528 196.271 -2.10575 196.583 0.225233 198.601Z" fill="#FF54C7"/>
</svg>
