<svg width="141" height="256" viewBox="0 0 141 256" fill="none" xmlns="http://www.w3.org/2000/svg">
<path d="M80.2717 56.627C81.0542 57.7621 80.9139 58.5985 79.8208 58.9678C79.1439 59.2336 78.8791 59.0492 77.9613 57.9672C77.4047 57.2843 76.527 56.427 76.0636 56.1042C75.0376 55.3893 74.8268 54.2099 75.6551 53.6562C76.3019 53.2219 79.1182 55.0366 80.2717 56.627Z" fill="#FF54C7"/>
<path d="M73.9045 52.8372C74.003 54.0366 72.9791 54.3065 70.4858 53.651C67.6586 52.9104 67.4269 52.7489 67.3456 51.8073C67.2471 50.6078 68.3271 50.3279 70.688 50.8911C73.3928 51.5957 73.8462 51.8624 73.9045 52.8372Z" fill="#FF54C7"/>
<path d="M83.1564 63.0626C83.8197 65.6389 83.3736 67.1964 82.0709 66.8787C81.102 66.6462 79.8145 61.2259 80.5465 60.4576C81.4961 59.4475 82.5161 60.4532 83.1564 63.0626Z" fill="#FF54C7"/>
<path d="M99.0821 74.3566C98.8626 75.2362 97.581 75.5232 96.7204 74.9236C96.3564 74.6699 95.3214 74.3913 94.4719 74.3403C92.6276 74.2353 92.6938 74.2814 92.5262 73.1813C92.2722 71.9227 93.4345 71.4542 95.5506 71.9453C97.6999 72.4594 99.3116 73.5332 99.0821 74.3566Z" fill="#FF54C7"/>
<path d="M65.7893 51.0135C66.0101 52.249 65.3102 52.548 62.3687 52.4652C59.305 52.3463 58.4314 51.836 59.3077 50.5783C59.7228 49.9825 60.509 49.842 62.5549 49.9399C65.6287 50.1149 65.6287 50.1149 65.7893 51.0135Z" fill="#FF54C7"/>
<path d="M99.6938 78.0775C99.5345 79.294 97.1612 82.0653 96.061 82.233C94.4094 82.5571 94.3771 81.4038 95.9683 79.1201C96.7754 77.9616 97.7049 76.8393 98.0117 76.6106C98.84 76.0569 99.83 76.8941 99.6938 78.0775Z" fill="#FF54C7"/>
<path d="M90.8244 73.5164C90.6771 74.1512 86.6317 75.5118 85.2698 75.3495C84.7012 75.2483 84.4494 74.9746 84.339 74.3568C84.0851 73.0982 84.2666 72.9789 87.0976 72.4439C89.6478 71.9591 91.1391 72.359 90.8244 73.5164Z" fill="#FF54C7"/>
<path d="M83.9096 71.3599C83.9422 74.1359 83.1982 75.4858 81.9245 74.8442C80.9055 74.3309 80.9468 69.0498 81.9737 68.6344C83.2944 68.0796 83.8049 68.8287 83.9096 71.3599Z" fill="#FF54C7"/>
<path d="M57.4021 51.0699C57.6028 52.193 57.0583 52.5511 54.4018 52.7652C51.689 52.9892 50.3893 52.5261 50.704 51.3688C50.7922 50.8894 51.7167 50.5503 53.6923 50.2551C56.6327 49.8455 57.2013 49.9467 57.4021 51.0699Z" fill="#FF54C7"/>
<path d="M49.0966 51.6764C49.3174 52.9119 48.433 53.4756 45.8095 53.7127C43.0737 53.9699 41.9324 53.4205 42.574 52.1467C42.8537 51.6041 43.6991 51.3081 45.4702 51.1655C48.7545 50.8972 48.9661 50.9463 49.0966 51.6764Z" fill="#FF54C7"/>
<path d="M94.0948 83.7162C93.9966 84.1394 93.2646 84.9078 92.4694 85.4845L91.0044 86.5287L92.1859 87.3028C93.2681 88.0076 93.3313 88.1992 92.824 88.9273C92.3628 89.5893 91.8804 89.6465 89.6319 89.0632C86.236 88.2213 85.8549 87.7099 87.4672 86.0309C89.1357 84.3418 92.8029 82.3244 93.6233 82.6994C93.9673 82.8407 94.193 83.293 94.0948 83.7162Z" fill="#FF54C7"/>
<path d="M99.1334 92.0893C99.7403 93.053 99.7644 93.5123 99.2731 94.0058C98.5973 94.764 98.2433 94.5665 95.7297 92.1761C93.2823 89.8318 94.316 87.9953 97.0301 89.8863C97.7352 90.4268 98.7221 91.4094 99.1334 92.0893Z" fill="#FF54C7"/>
<path d="M40.9613 53.1334C41.155 54.055 40.0459 54.6589 37.5649 55.0444C35.8932 55.2563 34.6967 55.2093 34.4911 54.8694C33.7418 53.7573 34.4938 53.1013 37.1132 52.5172C39.5742 52.0194 40.8238 52.2018 40.9613 53.1334Z" fill="#FF54C7"/>
<path d="M98.8685 96.8247C98.9227 97.4524 98.7152 97.7503 97.9561 98.2047C96.0749 99.3523 93.7032 99.8632 92.9419 99.3328C91.8497 98.5717 92.2737 97.5397 93.8953 97.0471C94.6715 96.8504 95.8899 96.3718 96.5798 96.0167C97.9927 95.3295 98.77 95.6252 98.8685 96.8247Z" fill="#FF54C7"/>
<path d="M32.6705 54.4419C33.1852 55.5379 32.6507 55.9522 29.582 56.6166C26.738 57.2408 26.037 57.0474 26.0999 55.6163C26.145 55.0577 26.7226 54.7226 28.6681 54.259C31.7498 53.5053 32.186 53.5143 32.6705 54.4419Z" fill="#FF54C7"/>
<path d="M90.78 98.9117C90.6848 99.1895 90.2798 99.8414 89.8877 100.404C89.4857 100.911 89.1007 101.675 89.0255 102.065C88.9273 102.488 88.5282 102.849 87.9666 102.95C86.6188 103.191 86.1964 101.962 86.7697 99.6574C87.2578 97.6867 87.2578 97.6867 88.4341 97.6214C89.8351 97.5158 90.9965 98.1775 90.78 98.9117Z" fill="#FF54C7"/>
<path d="M24.7821 56.6098C24.9558 57.4191 24.0944 57.9497 21.6966 58.6391C19.8965 59.1057 19.001 59.1209 18.5506 58.7088C17.5075 57.7361 18.3648 56.8585 21.0765 56.142C23.4281 55.5189 24.6446 55.6781 24.7821 56.6098Z" fill="#FF54C7"/>
<path d="M88.6118 105.759C88.6159 106.106 88.4767 107.435 88.3044 108.741C87.9818 110.827 87.8766 111.048 87.0903 111.189C86.4726 111.299 86.1286 111.158 85.8698 110.683C85.4083 109.722 86.0524 105.057 86.7554 104.613C87.4021 104.179 88.5405 104.874 88.6118 105.759Z" fill="#FF54C7"/>
<path d="M16.7075 59.2956C16.501 60.0859 15.1212 60.7961 12.6472 61.3832C10.6686 61.8238 10.0699 61.5541 10.1198 60.2123C10.1548 59.5975 10.7886 59.2524 12.8724 58.5902C15.6201 57.7514 17.0252 57.9928 16.7075 59.2956Z" fill="#FF54C7"/>
<path d="M87.7371 113.996C87.7976 115.955 87.2957 119.145 86.8304 119.46C86.5466 119.656 85.978 119.555 85.5808 119.278C84.985 118.863 84.8545 118.133 85.0879 116.034C85.2762 114.493 85.6169 113.157 85.9569 112.952C86.6267 112.484 87.6989 113.133 87.7371 113.996Z" fill="#FF54C7"/>
<path d="M8.84912 61.4873C9.01975 62.442 8.79213 62.6276 6.56991 63.4884C3.50232 64.6452 2.87453 64.6994 2.39 63.7719C1.84226 62.6528 2.24135 62.2917 5.26282 61.2011C7.95737 60.2269 8.63833 60.308 8.84912 61.4873Z" fill="#FF54C7"/>
<path d="M86.8208 123.634C86.6929 127.134 86.4895 127.779 85.4485 127.791C84.933 127.825 84.4105 127.658 84.248 127.397C83.7805 126.727 84.4667 121.649 85.1135 121.215C86.1463 120.509 86.9518 121.611 86.8208 123.634Z" fill="#FF54C7"/>
<path d="M0.959754 64.5483C1.02404 65.2323 0.80646 65.474 -0.448034 66.0749C-1.24023 66.5063 -2.60406 66.9818 -3.49257 67.1986C-4.80728 67.4625 -5.14125 67.3774 -5.30782 66.7696C-5.62089 65.6665 -5.1065 65.14 -2.7158 64.249C0.295629 63.1023 0.821135 63.1243 0.959754 64.5483Z" fill="#FF54C7"/>
<path d="M86.0525 130.525C86.0897 130.895 85.9605 132.28 85.8444 133.576C85.598 135.764 85.4928 135.986 84.7066 136.127C84.2342 136.24 83.6455 136.026 83.4499 135.743C82.9293 134.937 83.5794 129.982 84.2723 129.482C84.9421 129.014 86.0143 129.663 86.0525 130.525Z" fill="#FF54C7"/>
<path d="M85.2222 138.792C85.2594 139.162 85.1463 140.312 84.99 141.383C84.6744 143.671 83.8112 144.84 82.8513 144.171C81.9577 143.548 82.3329 138.352 83.3598 137.937C84.2743 137.542 85.1609 137.963 85.2222 138.792Z" fill="#FF54C7"/>
<path d="M84.0826 146.85C84.1621 148.43 83.3804 152.162 82.869 152.544C81.7569 153.293 81.0036 151.834 81.276 149.467C81.5644 146.865 82.193 145.681 83.1618 145.913C84.0414 146.133 84.0083 146.11 84.0826 146.85Z" fill="#FF54C7"/>
<path d="M82.5788 157.748C82.1751 160.515 82.0829 160.648 81.1843 160.808C79.8134 161.082 79.5305 160.148 80.0956 157.149C80.6318 154.474 81.2644 153.637 82.3567 154.398C82.8531 154.744 82.8914 155.606 82.5788 157.748Z" fill="#FF54C7"/>
<path d="M81.2916 162.851C81.6066 163.316 80.9224 167.756 80.392 168.517C79.9538 169.146 78.7343 169.132 78.2769 168.519C77.9419 167.941 78.7886 163.762 79.5035 162.736C79.9417 162.107 80.758 162.135 81.2916 162.851Z" fill="#FF54C7"/>
<path d="M79.6811 172.294C79.5468 172.839 79.2753 174.076 79.0197 175.078C78.699 176.526 78.4784 176.913 77.8707 177.08C76.5199 177.466 76.1447 176.664 76.6087 174.234C77.256 171.047 77.9709 170.02 79.0631 170.781C79.6258 171.174 79.8285 171.659 79.6811 172.294Z" fill="#FF54C7"/>
<path d="M77.7509 179.706C77.7349 179.94 77.4403 181.21 77.0664 182.523C76.453 184.603 76.3016 184.891 75.5384 184.998C74.8976 185.142 74.5767 184.967 74.364 184.426C73.9687 183.511 75.1193 179.249 75.8915 178.705C76.5383 178.271 77.7889 178.945 77.7509 179.706Z" fill="#FF54C7"/>
<path d="M75.2093 187.519C75.39 188.53 73.8682 192.337 73.0961 192.881C72.7561 193.087 72.2306 193.065 71.8665 192.811C71.337 192.442 71.395 191.794 72.0877 189.671C72.7082 187.793 73.1623 186.929 73.7169 186.627C74.6214 186.176 75.0085 186.396 75.2093 187.519Z" fill="#FF54C7"/>
<path d="M72.2217 195.269C72.3823 196.167 70.3853 200.233 69.6291 200.542C69.0415 200.821 67.9162 200.037 67.9512 199.422C67.9672 199.188 68.4403 197.944 69.0589 196.703C69.8419 195.086 70.3262 194.391 70.8547 194.267C71.7662 194.017 72.0641 194.225 72.2217 195.269Z" fill="#FF54C7"/>
<path d="M68.2487 202.384C68.326 202.979 66.83 204.985 65.4743 206.154C64.257 207.125 63.3153 207.207 62.6854 206.276C62.251 205.629 62.5278 205.232 64.9353 202.976C66.3501 201.651 66.9047 201.349 67.4473 201.629C67.8575 201.816 68.2085 202.159 68.2487 202.384Z" fill="#FF54C7"/>
<path d="M61.2324 206.888C61.0359 207.734 59.1827 208.066 58.2559 207.42C57.958 207.212 57.254 207.164 56.6694 207.298C55.814 207.538 55.5362 207.442 55.2041 206.719C54.859 206.086 54.9673 205.718 55.594 205.172C56.7912 204.089 57.5183 204.103 59.5894 205.153C61.1841 205.969 61.4027 206.22 61.2324 206.888Z" fill="#FF54C7"/>
<path d="M54.4886 209.073C54.2742 210.792 52.6982 213.971 51.9782 214.158C51.1789 214.388 50.9573 214.283 50.6382 213.47C50.3393 212.77 52.0415 208.351 52.8136 207.808C53.5396 207.33 54.6088 208.124 54.4886 209.073Z" fill="#FF54C7"/>
<path d="M51.3054 216.54C51.3425 216.91 50.7771 218.286 50.0563 219.603C48.9304 221.572 48.6336 221.857 48.0318 221.732C47.6086 221.634 47.2475 221.235 47.1672 220.786C47.0327 219.709 48.9966 215.62 49.7959 215.39C50.6282 215.183 51.234 215.655 51.3054 216.54Z" fill="#FF54C7"/>
<path d="M40.4229 219.382C41.1573 221.221 41.2216 221.905 40.7633 222.422C39.916 223.356 38.877 222.73 38.1225 220.779L37.4413 219.075L36.1499 220.928C34.3512 223.51 33.4537 224.163 32.6523 223.408C32.0595 222.848 32.1317 222.603 33.7229 220.319C35.2679 218.101 35.5417 217.85 36.4112 218.013C37.1814 218.107 37.396 218.011 37.3057 217.505C37.2254 217.056 37.3868 216.824 37.9945 216.658C39.0976 216.345 39.3925 216.698 40.4229 219.382Z" fill="#FF54C7"/>
<path d="M47.1775 223.593C47.2679 224.098 47.1105 224.677 46.8267 224.873C46.5429 225.068 46.1439 225.429 45.9594 225.694C45.3598 226.555 42.9279 226.728 41.8687 225.99C41.3391 225.622 40.981 225.077 41.0432 224.776C41.2597 224.042 42.4911 223.474 43.0869 223.889C43.3517 224.074 43.9493 223.851 44.4738 223.381C45.6279 222.218 46.9567 222.357 47.1775 223.593Z" fill="#FF54C7"/>
<path d="M31.6204 224.605C31.8743 225.864 28.8599 227.156 26.3938 226.814C25.3558 226.681 25.0018 226.484 24.8683 225.899C24.5552 224.796 24.8952 224.59 27.9378 224.104C30.6104 223.656 31.503 223.786 31.6204 224.605Z" fill="#FF54C7"/>
<path d="M22.8245 221.776C24.9621 224.495 23.1612 226.092 20.8291 223.582C20.2163 222.909 19.5141 222.223 19.2925 222.118C18.2966 221.571 18.114 221.198 18.6213 220.47C19.6821 218.948 20.9057 219.309 22.8245 221.776Z" fill="#FF54C7"/>
<path d="M16.7494 221.031C16.8378 222.174 16.1609 222.44 13.2295 222.414C10.3874 222.4 9.37138 221.741 10.2477 220.484C10.5936 219.987 11.5383 219.76 13.4618 219.822C16.5486 219.908 16.671 219.944 16.7494 221.031Z" fill="#FF54C7"/>
<path d="M8.40507 220.62C8.61287 221.945 7.71134 222.251 4.85511 221.834C2.06507 221.464 1.09519 220.739 2.06781 219.695C2.45685 219.278 3.54395 219.2 5.46448 219.407C7.95364 219.716 8.26455 219.834 8.40507 220.62Z" fill="#FF54C7"/>
<path d="M0.279385 219.49C0.342596 219.682 0.165161 220.148 -0.0654469 220.479C-0.388298 220.943 -1.2277 220.948 -2.93362 220.644C-5.78687 220.082 -6.85605 219.288 -6.18729 218.328C-5.4724 217.302 0.0916592 218.278 0.279385 219.49Z" fill="#FF54C7"/>
</svg>
