<svg width="45" height="38" viewBox="0 0 45 38" fill="none" xmlns="http://www.w3.org/2000/svg">
<g filter="url(#filter0_b_874_2180)">
<rect x="-5" width="50" height="38" rx="8" fill="#FF54C7"/>
<g clip-path="url(#clip0_874_2180)">
<path d="M16.1661 12H27.8328L21.9878 19.35L16.1661 12ZM12.9578 11.545C15.3145 14.5667 19.6661 20.1667 19.6661 20.1667V27.1667C19.6661 27.8083 20.1911 28.3333 20.8328 28.3333H23.1661C23.8078 28.3333 24.3328 27.8083 24.3328 27.1667V20.1667C24.3328 20.1667 28.6728 14.5667 31.0295 11.545C31.6245 10.775 31.0761 9.66666 30.1078 9.66666H13.8795C12.9111 9.66666 12.3628 10.775 12.9578 11.545Z" fill="white"/>
</g>
<rect x="-4.5" y="0.5" width="49" height="37" rx="7.5" stroke="#FF54C7" stroke-opacity="0.75"/>
</g>
<defs>
<filter id="filter0_b_874_2180" x="-30" y="-25" width="100" height="88" filterUnits="userSpaceOnUse" color-interpolation-filters="sRGB">
<feFlood flood-opacity="0" result="BackgroundImageFix"/>
<feGaussianBlur in="BackgroundImageFix" stdDeviation="12.5"/>
<feComposite in2="SourceAlpha" operator="in" result="effect1_backgroundBlur_874_2180"/>
<feBlend mode="normal" in="SourceGraphic" in2="effect1_backgroundBlur_874_2180" result="shape"/>
</filter>
<clipPath id="clip0_874_2180">
<rect width="28" height="28" fill="white" transform="translate(8 5)"/>
</clipPath>
</defs>
</svg>
