<svg width="14" height="13" viewBox="0 0 14 13" fill="none" xmlns="http://www.w3.org/2000/svg">
<path d="M10.1673 0.500108C9.10152 0.498265 8.07849 0.908083 7.32275 1.63963L7.00328 1.9506L6.68381 1.63963C5.92807 0.908083 4.90505 0.498265 3.83924 0.500108C3.32563 0.496281 2.81655 0.593767 2.3427 0.786685C1.86885 0.979604 1.44006 1.26396 1.08219 1.62259C0.378865 2.33408 -0.00963816 3.28576 0.000181724 4.2731C0.0100016 5.26044 0.417361 6.20462 1.13471 6.90272L6.80635 12.4214C6.85841 12.4718 6.92881 12.5 7.00219 12.5C7.07557 12.5 7.14597 12.4718 7.19803 12.4214L12.4736 7.28185L12.8653 6.90059C13.5826 6.20249 13.99 5.25831 13.9998 4.27097C14.0096 3.28363 13.6211 2.33195 12.9178 1.62046C12.5606 1.26289 12.1328 0.979321 11.6601 0.786791C11.1875 0.59426 10.6797 0.496746 10.1673 0.500108ZM11.5655 5.7632L11.2417 6.07418L7.00328 10.202L2.44321 5.7632C2.13271 5.46909 1.91766 5.09277 1.8247 4.68086C1.73174 4.26894 1.76496 3.83954 1.92025 3.44582C2.07218 3.07268 2.33758 2.7536 2.68092 2.5313C3.02426 2.30901 3.42916 2.19409 3.84143 2.20193C4.44229 2.20104 5.01932 2.43061 5.44752 2.84092L6.62473 3.99322C6.67458 4.04216 6.73388 4.08101 6.79923 4.10752C6.86458 4.13403 6.93467 4.14769 7.00547 4.14769C7.07627 4.14769 7.14636 4.13403 7.21171 4.10752C7.27706 4.08101 7.33636 4.04216 7.38621 3.99322L8.56342 2.84092C8.99162 2.43061 9.56865 2.20104 10.1695 2.20193C10.5815 2.19392 10.9862 2.30853 11.3296 2.53043C11.6729 2.75232 11.9384 3.07094 12.0907 3.44369C12.2465 3.83785 12.2797 4.26788 12.1864 4.6803C12.093 5.09272 11.8771 5.4693 11.5655 5.7632Z" fill="#FF54C7"/>
</svg>
