<svg width="54" height="84" viewBox="0 0 54 84" fill="none" xmlns="http://www.w3.org/2000/svg">
<path d="M0.75 45.7445C10.0003 50.5957 19.6529 55.6738 27.1077 59.6029L53.25 45.7445C43.7842 59.6313 35.8984 71.1917 27.1077 83.9863C18.3027 71.2201 8.57832 57.1348 0.75 45.7445ZM1.75547 41.9147L27.1365 28.5386L52.1871 41.8154L27.1508 55.2057L1.75547 41.9147ZM27.1077 24.2548L0.75 37.9572L26.9928 0.0133057L53.25 38.0423L27.1077 24.2548Z" fill="#3AB83A"/>
<path d="M27.1071 59.6032L53.2494 45.7448C43.7836 59.6315 27.1071 83.9865 27.1071 83.9865V59.6032ZM27.1358 28.5388L52.1864 41.8156L27.1502 55.2059L27.1358 28.5388ZM27.1071 24.2551L26.9922 0.0135498L53.2494 38.0425L27.1071 24.2551Z" fill="#0B8311"/>
<path d="M1.75781 41.9149L27.1388 43.9717L52.1894 41.8298L27.1532 55.2201L1.75781 41.9149Z" fill="#0B8311"/>
<path d="M27.1406 43.9717L52.1912 41.8298L27.155 55.2201L27.1406 43.9717Z" fill="#146714"/>
</svg>
