<svg width="60" height="71" viewBox="0 0 60 71" fill="none" xmlns="http://www.w3.org/2000/svg">
<path d="M58.3486 18.9658C55.564 17.0009 52.5862 14.9061 49.6727 12.8276C49.6084 12.7789 49.544 12.7302 49.4635 12.6814C49.1416 12.4379 48.7713 12.178 48.3206 12.0319L48.2885 12.0157C40.4978 10.1157 32.5785 8.1671 24.9166 6.28342C17.963 4.57837 11.0255 2.87331 4.07189 1.16825C3.89483 1.11954 3.71778 1.07082 3.52462 1.0221C2.89686 0.84348 2.17253 0.648617 1.39991 0.746049C1.17456 0.778526 0.981403 0.859719 0.804343 0.97339L0.611188 1.13578C0.305358 1.42807 0.144396 1.80156 0.0639144 2.01266L0.015625 2.14257V2.88955L0.0478171 3.00322C4.44211 15.4258 8.94908 28.0269 13.2951 40.2222C16.6431 49.6081 20.1199 59.335 23.5162 68.8833C23.7255 69.5329 24.3211 69.9551 25.0615 70.02H25.2224C25.9146 70.02 26.5262 69.679 26.8321 69.1269L39.5803 50.3713C42.6869 45.8082 45.7935 41.229 48.9001 36.6659C50.1717 34.7985 51.4433 32.9148 52.7149 31.0473C54.8075 27.962 56.9644 24.7792 59.1052 21.6776L59.2178 21.5153V21.3204C59.2661 20.752 59.2822 19.5829 58.3486 18.9658ZM43.4113 25.8022C40.4174 27.3774 37.3591 29.0013 34.2847 30.6089C36.0714 28.6765 37.8741 26.7279 39.6608 24.7955C41.8982 22.3597 44.2322 19.8427 46.5179 17.3744L46.5662 17.3257C46.7593 17.0659 47.0008 16.8223 47.2583 16.5625C47.4354 16.3838 47.6285 16.2052 47.8056 15.9941C48.9967 16.8223 50.2039 17.6667 51.3629 18.4949C52.1999 19.0957 53.053 19.6965 53.9222 20.2974C50.381 22.1161 46.8398 23.9835 43.4113 25.8022ZM35.7172 25.0228C33.4155 27.5398 31.0332 30.1217 28.6671 32.6712C24.0796 27.0526 19.3956 21.3529 14.8564 15.848C12.7961 13.3472 10.7197 10.8302 8.65934 8.32949L8.64325 8.31325C8.17645 7.77738 7.72576 7.19278 7.27506 6.64067C6.98533 6.26718 6.6795 5.90993 6.37367 5.53644C8.24084 6.0236 10.1241 6.47828 11.9752 6.91673C13.6009 7.30645 15.291 7.71242 16.9489 8.13462C26.2848 10.4243 35.6368 12.7139 44.9726 15.0036C41.866 18.3487 38.7433 21.7426 35.7172 25.0228ZM27.6208 56.6719C27.7979 54.9668 27.991 53.2131 28.152 51.4918C28.2968 50.1115 28.4417 48.6987 28.5866 47.3509C28.8119 45.1912 29.0534 42.9502 29.2465 40.758L29.2948 40.3683C29.4558 38.9718 29.6167 37.5265 29.7133 36.0813C29.8904 35.9839 30.0835 35.8864 30.2928 35.8052C30.5342 35.6916 30.7757 35.5941 31.0171 35.448C34.7354 33.4831 38.4536 31.5182 42.188 29.5696C45.9062 27.621 49.721 25.6074 53.5037 23.61C50.059 28.644 46.5983 33.7267 43.2503 38.6795C40.3691 42.9178 37.4073 47.286 34.4617 51.5892C33.3028 53.3105 32.0956 55.0643 30.9527 56.7531C29.665 58.6368 28.3451 60.5692 27.0574 62.5015C27.2184 60.5529 27.4115 58.588 27.6208 56.6719ZM5.18254 9.36876C4.97329 8.78417 4.74794 8.18334 4.55478 7.61499C8.90079 12.9088 13.279 18.2351 17.5445 23.3989C19.7497 26.0783 21.9549 28.7414 24.1601 31.4371C24.5947 31.9405 25.0293 32.4763 25.4478 32.996C25.9951 33.6618 26.5423 34.36 27.1379 35.0258C26.9447 36.6984 26.7838 38.3872 26.6067 40.0111C26.4941 41.1478 26.3814 42.2845 26.2526 43.4374V43.4536C26.2043 44.1844 26.1077 44.9151 26.0273 45.6296C25.9146 46.6202 25.657 48.8611 25.657 48.8611L25.641 48.9748C25.3512 52.255 24.9971 55.5677 24.6591 58.7829C24.5142 60.1145 24.3854 61.4785 24.2406 62.8426C24.1601 62.599 24.0635 62.3554 23.983 62.1281C23.7416 61.4785 23.5001 60.7965 23.2748 60.1307L21.5525 55.3078C16.0958 39.9948 10.6392 24.698 5.18254 9.36876Z" fill="#BEB9BC"/>
</svg>
