<svg width="76" height="76" viewBox="0 0 76 76" fill="none" xmlns="http://www.w3.org/2000/svg">
<path d="M23.3337 31.9662L38.0166 17.2893L52.7055 31.9782L61.2442 23.4335L38.0166 0.200012L14.7891 23.4276L23.3337 31.9662Z" fill="#F3BA2F"/>
<path d="M0.203125 38.003L8.74179 29.4584L17.2864 38.003L8.74179 46.5417L0.203125 38.003Z" fill="#F3BA2F"/>
<path d="M23.3337 44.0338L38.0166 58.7167L52.7055 44.0278L61.2501 52.5605L38.0226 75.794L14.7891 52.5784L23.3337 44.0338Z" fill="#F3BA2F"/>
<path d="M58.7188 38.003L67.2574 29.4584L75.802 37.997L67.2574 46.5476L58.7188 38.003Z" fill="#F3BA2F"/>
<path d="M46.6797 37.9971L38.0156 29.327L31.6086 35.734L30.8682 36.4685L29.3516 37.9851L38.0156 46.6432L46.6797 38.003V37.9971Z" fill="#F3BA2F"/>
</svg>
