<svg width="56" height="56" viewBox="0 0 56 56" fill="none" xmlns="http://www.w3.org/2000/svg">
<path d="M46.4184 0H21.0963V34.1713H55.2676V8.84927C55.2676 3.94615 51.3215 0 46.4184 0ZM13.204 0H8.84927C3.94615 0 0 3.94615 0 8.84927V13.204H13.204V0ZM0 21.0963H13.204V34.3003H0V21.0963ZM42.2034 55.2676H46.5581C51.4613 55.2676 55.4074 51.3215 55.4074 46.4184V42.2034H42.2034V55.2676ZM21.0963 42.2034H34.3003V55.4074H21.0963V42.2034ZM0 42.2034V46.5581C0 51.4613 3.94615 55.4074 8.84927 55.4074H13.204V42.2034H0Z" fill="#BEB9BC"/>
</svg>
