<svg width="62" height="62" viewBox="0 0 62 62" fill="none" xmlns="http://www.w3.org/2000/svg">
<path d="M55.8385 10.5363C58.748 10.5363 61.1067 8.17769 61.1067 5.26815C61.1067 2.35862 58.748 -3.05176e-05 55.8385 -3.05176e-05C52.929 -3.05176e-05 50.5703 2.35862 50.5703 5.26815C50.5703 8.17769 52.929 10.5363 55.8385 10.5363Z" fill="#1FC5C9"/>
<path d="M15.3351 39.5959C13.351 36.2277 12.542 32.2958 13.0353 28.4179C13.5286 24.54 15.2961 20.9359 18.0603 18.1717C20.8245 15.4076 24.4286 13.64 28.3065 13.1467C32.1844 12.6534 36.1162 13.4624 39.4844 15.4465L43.699 11.232L43.4882 11.0634C38.9551 8.07538 33.5265 6.75104 28.1266 7.31586C22.7268 7.88069 17.6897 10.2998 13.873 14.1611C10.0564 18.0225 7.69617 23.0875 7.1943 28.4935C6.69242 33.8995 8.07992 39.3124 11.1205 43.8104L15.3351 39.5959Z" fill="#1FC5C9"/>
<path d="M45.7545 21.7475C47.7386 25.1156 48.5476 29.0475 48.0543 32.9254C47.561 36.8033 45.7934 40.4074 43.0293 43.1716C40.2651 45.9358 36.661 47.7033 32.7831 48.1966C28.9052 48.6899 24.9733 47.8809 21.6052 45.8968L17.3906 50.1114C21.9046 53.1759 27.3457 54.5709 32.7773 54.0562C38.2089 53.5415 43.2911 51.1492 47.149 47.2913C51.0069 43.4334 53.3991 38.3512 53.9139 32.9196C54.4286 27.488 53.0336 22.0469 49.9691 17.5329L45.7545 21.7475Z" fill="#1FC5C9"/>
<path d="M5.26818 61.1112C8.17772 61.1112 10.5364 58.7525 10.5364 55.843C10.5364 52.9334 8.17772 50.5748 5.26818 50.5748C2.35865 50.5748 0 52.9334 0 55.843C0 58.7525 2.35865 61.1112 5.26818 61.1112Z" fill="#1FC5C9"/>
</svg>
